# xmcd
# 
# Track frame offsets:
#     150
#     12890
#     29086
#     52349
#     74458
#     97818
#     119121
#     142045
#     158226
#     184265
#     201084
#     222693
#     240104
#     253804
# 
# Disc length: 3550
# 
# Revision: 2
# Processed by: cddbd v1.5.2PL0 Copyright (c) Steve Scherf et al.
# Submitted via: fre:ac v1.0.17
# 
DISCID=da0ddc0e
DTITLE=SHANTI - Born To Sing
DYEAR=2010
DGENRE=Jazz
TTITLE0=Aqua's Lullaby
TTITLE1=They Cant't Take That Away From Me
TTITLE2=Killing Me Softly With His Song
TTITLE3=真夏の果実
TTITLE4=Our Song
TTITLE5=Yuyake
TTITLE6=Talking Low
TTITLE7=From This Moment On
TTITLE8=Cry Me A River
TTITLE9=Look Back
TTITLE10=Closing Time
TTITLE11=Fly Me To The Moon
TTITLE12=Goognight
TTITLE13=Cirtain Call
EXTD=YEAR: 2010
EXTT0=
EXTT1=
EXTT2=
EXTT3=
EXTT4=
EXTT5=
EXTT6=
EXTT7=
EXTT8=
EXTT9=
EXTT10=
EXTT11=
EXTT12=
EXTT13=
PLAYORDER=
